<svg version="1.1" id="Layer_1" xmlns="http://www.w3.org/2000/svg" xmlns:xlink="http://www.w3.org/1999/xlink" x="0px" y="0px"
	 width="100%" viewBox="0 0 1892 500" enable-background="new 0 0 1892 500" xml:space="preserve">
<path fill="#020101" opacity="1.000000" stroke="none" 
	d="
M1240.000000,501.000000 
	C826.666687,501.000000 413.833344,501.000000 1.000000,501.000000 
	C1.000000,334.333344 1.000000,167.666672 1.000000,1.000000 
	C631.666687,1.000000 1262.333374,1.000000 1893.000000,1.000000 
	C1893.000000,167.666672 1893.000000,334.333344 1893.000000,501.000000 
	C1675.500000,501.000000 1458.000000,501.000000 1240.000000,501.000000 
M1788.973755,311.586517 
	C1790.128052,314.609589 1791.282471,317.632660 1792.436768,320.655762 
	C1791.575562,286.139679 1787.078735,252.527817 1769.806396,221.688004 
	C1810.131714,197.065292 1851.410645,174.679062 1890.257812,147.378143 
	C1888.541138,146.835022 1887.462036,146.419373 1886.347290,146.151489 
	C1796.210938,124.491737 1704.733398,116.028358 1612.178345,118.688034 
	C1553.898193,120.362778 1495.631226,122.494843 1437.356812,124.370010 
	C1431.422485,124.560966 1425.476562,124.395630 1419.535889,124.395630 
	C1419.544922,124.029175 1419.553955,123.662727 1419.562988,123.296272 
	C1478.432617,118.580994 1537.302368,113.865715 1596.172119,109.150436 
	C1589.066772,106.710640 1581.920776,105.178001 1574.818848,103.462852 
	C1497.450684,84.778450 1420.229126,65.461151 1342.690918,47.512257 
	C1244.498291,24.782236 1145.279175,8.504755 1044.272339,5.759553 
	C1020.506042,5.113623 996.551331,4.815053 972.928894,7.005422 
	C937.967163,10.247215 904.445435,20.735077 871.345459,32.207550 
	C821.719788,49.407841 774.079102,71.325432 726.358765,93.091660 
	C691.234680,109.112526 655.914856,124.723854 620.407288,139.873352 
	C608.712952,144.862823 596.499390,149.427383 583.320679,148.860245 
	C511.659912,145.776337 440.080444,145.885788 368.681488,153.913651 
	C312.037354,160.282547 256.611389,171.975815 202.921844,191.423752 
	C146.847260,211.735641 95.075783,240.339798 45.112591,272.556061 
	C39.260227,276.329651 36.091415,280.538788 36.501785,287.370453 
	C36.752266,291.540283 34.804665,294.405579 31.921316,297.312927 
	C26.653517,302.624542 21.906267,308.452423 16.941900,314.064972 
	C19.375381,314.540405 20.970005,314.157135 22.498636,313.594513 
	C53.605221,302.146149 85.586334,295.371185 118.863274,297.084961 
	C133.206131,297.823608 146.183228,294.133606 158.870087,288.324219 
	C187.289093,275.310974 212.415070,257.342407 235.902328,236.930862 
	C239.006531,234.233170 242.024521,231.436234 245.605743,228.214493 
	C249.971939,239.900757 247.583435,250.799515 244.934036,261.537476 
	C242.254410,272.398010 238.912994,283.095245 235.527695,295.041901 
	C237.084274,293.334656 238.097229,292.440460 238.850601,291.364502 
	C248.580856,277.467743 260.093018,265.155945 273.579559,254.972610 
	C331.176910,211.482620 393.612366,196.079376 463.130310,223.209137 
	C464.535980,223.757690 466.401489,223.805435 467.871948,223.412018 
	C512.986511,211.341537 559.111755,208.162125 605.539917,207.735641 
	C648.237671,207.343460 690.810791,209.737595 733.287415,213.936462 
	C781.357178,218.688202 829.244751,224.766312 876.702576,233.930252 
	C879.100037,234.393204 881.596924,234.341049 884.047546,234.528717 
	C884.088318,234.004364 884.129028,233.480026 884.169800,232.955673 
	C783.161133,202.037491 680.040039,182.200470 574.538269,174.374710 
	C577.421448,173.724396 580.318176,173.364441 583.226013,173.189163 
	C598.693176,172.256897 614.155823,171.210770 629.633789,170.504669 
	C655.915100,169.305695 682.218567,167.261398 708.490845,167.551636 
	C736.948669,167.865997 765.388489,170.331131 793.823547,172.064194 
	C831.742981,174.375320 869.672913,176.579361 907.557373,179.383087 
	C960.725891,183.317963 1013.878357,187.509811 1066.996948,192.067062 
	C1110.652466,195.812424 1154.275513,199.985672 1197.863525,204.452347 
	C1245.923218,209.377228 1293.925659,214.858444 1341.956421,220.066879 
	C1343.579468,220.242874 1345.238525,220.089203 1346.880737,220.089203 
	C1346.936646,219.372070 1346.992432,218.654922 1347.048218,217.937790 
	C1290.888184,209.686798 1234.823853,200.700165 1178.541382,193.391632 
	C1122.218628,186.077850 1065.733521,179.888229 1009.217346,174.225006 
	C952.890259,168.580673 896.436401,164.201569 840.038086,159.267731 
	C840.015320,158.941620 839.992554,158.615509 839.969788,158.289398 
	C957.117188,152.792862 1074.264526,147.296326 1191.411987,141.799774 
	C1191.472534,142.198792 1191.533203,142.597809 1191.593750,142.996811 
	C1175.268799,150.605301 1158.943848,158.213791 1142.618896,165.822281 
	C1151.378906,167.790436 1159.892822,168.841461 1168.409912,169.865387 
	C1243.330444,178.872253 1318.354614,187.104614 1393.138550,197.130310 
	C1449.243530,204.651886 1505.033447,214.516724 1560.989258,223.172592 
	C1564.057617,223.647247 1567.545166,223.148972 1570.522339,222.157303 
	C1580.467407,218.844681 1590.174927,214.811981 1600.142700,211.575912 
	C1633.594971,200.715408 1666.944946,199.389053 1700.518311,211.845016 
	C1728.524414,222.235458 1752.810059,237.276245 1767.400391,264.145538 
	C1775.548340,279.151001 1781.697876,295.241760 1788.973755,311.586517 
M78.765846,440.993622 
	C88.010475,440.993622 97.255112,440.993622 107.646881,440.993622 
	C88.082581,429.962555 20.536499,420.592926 5.075360,426.302155 
	C6.699572,434.094360 8.242565,441.913910 9.968965,449.692780 
	C13.594251,466.027740 22.740065,477.657532 38.910713,483.163269 
	C44.581104,485.093933 50.186916,487.302216 55.976044,488.781891 
	C92.722054,498.173981 129.859467,498.100586 167.100082,492.572571 
	C173.268723,491.656891 179.399933,489.484955 185.145203,486.971771 
	C192.551102,483.732117 194.701935,478.368835 192.539169,470.589508 
	C191.472488,466.752655 189.978256,463.019501 188.473785,459.322327 
	C183.991119,448.306335 181.972824,437.130829 184.165894,425.156891 
	C186.449097,412.691010 183.797256,400.709717 176.773529,390.306976 
	C170.842545,381.522705 164.071121,373.194855 156.871124,365.404877 
	C146.474716,354.156647 145.984818,353.447113 152.351639,339.247498 
	C153.032425,337.729156 153.783340,336.240814 154.540619,334.758453 
	C161.890656,320.370453 172.210724,308.171631 182.897079,296.236206 
	C184.198776,294.782318 185.259888,293.113037 186.432495,291.543579 
	C184.409592,291.285370 183.232468,291.768738 182.191833,292.458160 
	C174.419830,297.606964 166.733795,302.887573 158.909393,307.954865 
	C141.172760,319.441437 123.709000,331.411285 105.439926,341.984894 
	C97.585503,346.530792 88.173805,349.645782 79.167770,350.619659 
	C68.197769,351.805878 56.896870,350.249481 45.762608,349.520325 
	C31.226292,348.568390 17.236944,345.130737 3.161578,338.457031 
	C3.770738,341.434052 3.968748,343.568146 4.650477,345.534546 
	C7.865277,354.807648 11.251838,364.021027 14.502904,373.281769 
	C18.766413,385.426453 19.652239,397.356415 11.997326,408.678894 
	C11.878888,408.854065 12.134267,409.282013 12.250534,409.727295 
	C61.093117,406.891937 108.490181,412.232635 152.950226,434.762695 
	C147.264526,448.211121 136.565247,454.774994 123.628578,458.682922 
	C123.839973,459.381348 124.051369,460.079773 124.262764,460.778198 
	C134.678223,459.947784 145.093674,459.117371 155.509140,458.286957 
	C124.135880,475.429962 91.438278,480.044800 57.185017,469.269836 
	C53.315655,468.052673 49.726490,465.658478 46.317772,463.351501 
	C43.465729,461.421234 43.173878,458.589539 44.906677,455.423492 
	C47.801338,450.134644 52.239731,446.609833 57.826767,445.082703 
	C64.372833,443.293457 71.153671,442.363129 78.765846,440.993622 
M918.772400,386.528259 
	C917.487610,357.921112 916.169250,329.315369 914.941895,300.705780 
	C914.634888,293.551178 914.769348,293.419739 907.677612,293.431824 
	C896.686035,293.450592 885.687683,293.931885 874.707092,293.645966 
	C870.730713,293.542419 869.160339,294.398163 868.351196,298.383240 
	C863.452026,322.511322 858.263855,346.580566 853.227539,370.681061 
	C848.327820,394.128418 843.566711,417.605133 838.564453,441.030457 
	C837.680481,445.170105 838.429016,446.977417 842.976318,446.816925 
	C849.133789,446.599640 855.307922,446.658112 861.469116,446.819580 
	C864.946228,446.910645 866.640686,445.589478 867.119080,442.070007 
	C867.745544,437.461761 868.779480,432.908569 869.648499,428.333679 
	C875.453430,397.773376 881.244934,367.210510 887.097351,336.659332 
	C887.589172,334.091858 888.496033,331.603882 889.210083,329.078949 
	C889.642395,329.165833 890.074707,329.252686 890.507019,329.339539 
	C890.616943,329.932861 890.800598,330.523010 890.825928,331.119934 
	C891.532227,347.755127 892.257507,364.389679 892.906372,381.027191 
	C893.697754,401.322449 894.460571,421.619080 895.141479,441.918274 
	C895.264465,445.586487 896.965576,446.883118 900.472107,446.801331 
	C906.300964,446.665253 912.178162,446.321503 917.955017,446.884857 
	C923.680298,447.443115 926.588440,445.341675 929.004211,440.176819 
	C944.096008,407.911530 959.509155,375.796539 974.837402,343.641998 
	C977.119446,338.854919 979.515259,334.122101 981.858459,329.364166 
	C982.834351,330.767944 982.884949,331.764069 982.664795,332.696228 
	C980.409973,342.243774 978.096741,351.777496 975.827576,361.321716 
	C969.478699,388.025665 963.208862,414.748779 956.732605,441.421783 
	C955.733643,445.536102 956.800781,446.934265 960.923828,446.828857 
	C967.418335,446.662811 973.922729,446.658508 980.417358,446.815460 
	C983.454956,446.888855 984.896973,445.835815 985.494629,442.772552 
	C987.086548,434.614227 989.020081,426.523315 990.718384,418.384827 
	C998.603271,380.599060 1006.462646,342.807922 1014.304138,305.013062 
	C1015.023987,301.543518 1015.551270,298.033997 1016.293091,293.834961 
	C1001.266113,293.834961 987.157898,293.745148 973.055298,293.982452 
	C971.736511,294.004639 969.928406,295.836853 969.229858,297.261383 
	C955.018555,326.241760 940.951294,355.292786 926.810059,384.307648 
	C924.858459,388.311951 922.668213,392.199951 920.588440,396.141785 
	C920.120422,396.002899 919.652405,395.864014 919.184387,395.725159 
	C919.050293,392.976501 918.916260,390.227814 918.772400,386.528259 
M688.164001,349.720032 
	C683.589355,364.064880 680.348633,378.602325 682.010864,393.810608 
	C684.121948,413.125275 691.866028,429.198456 708.720703,440.003357 
	C730.658142,454.066589 768.447998,452.219116 790.978699,435.314789 
	C821.315430,412.553741 833.033752,381.403076 829.721252,344.334198 
	C828.203735,327.351288 820.750305,312.664032 806.404846,303.044983 
	C780.567688,285.720490 753.476135,287.338043 726.868591,301.090332 
	C707.260620,311.224854 695.692932,328.552338 688.164001,349.720032 
M1059.177490,308.651703 
	C1032.920898,332.519196 1022.970032,362.682861 1026.285767,397.285004 
	C1028.035400,415.544952 1036.896851,430.318420 1052.888306,440.321686 
	C1065.805176,448.401733 1080.009644,449.941345 1094.718872,449.009674 
	C1115.598755,447.687164 1133.693237,439.619629 1147.659668,424.179138 
	C1167.115234,402.670166 1175.834106,376.974274 1173.829712,347.912933 
	C1171.820557,318.779480 1151.950684,296.304932 1124.668335,292.154449 
	C1100.826660,288.527344 1078.947266,293.054779 1059.177490,308.651703 
M1513.562866,445.283752 
	C1515.196289,445.782471 1516.822876,446.685242 1518.464111,446.712341 
	C1527.124512,446.855469 1535.788452,446.777252 1544.451172,446.776978 
	C1571.938721,446.776123 1599.426514,446.808167 1626.913696,446.707062 
	C1628.885742,446.699799 1632.310181,446.130554 1632.592651,445.127747 
	C1634.768555,437.403809 1636.334839,429.508179 1638.275024,420.840454 
	C1635.246216,420.840454 1633.460938,420.840302 1631.675781,420.840454 
	C1606.853638,420.842438 1582.031494,420.848785 1557.209351,420.843994 
	C1549.649658,420.842529 1549.473755,420.709930 1551.094971,413.289307 
	C1553.012695,404.511200 1555.102783,395.770416 1557.149170,387.020721 
	C1558.848267,379.757172 1558.868286,379.761139 1566.262573,379.763885 
	C1588.419189,379.772095 1610.576294,379.831909 1632.731934,379.698242 
	C1634.621094,379.686859 1637.868042,378.751312 1638.166260,377.629211 
	C1640.155273,370.143219 1641.513916,362.489777 1643.207520,354.258026 
	C1640.541870,354.127533 1638.601685,353.951233 1636.661499,353.950073 
	C1614.504883,353.936859 1592.348267,353.964478 1570.191650,353.946472 
	C1564.915771,353.942169 1564.273071,353.130402 1565.382080,348.115479 
	C1567.070557,340.480896 1569.157593,332.912109 1570.378906,325.204987 
	C1571.096436,320.676086 1573.100708,319.582245 1577.300781,319.612701 
	C1598.789917,319.768646 1620.280762,319.736328 1641.770874,319.676453 
	C1654.919678,319.639832 1652.839722,321.338806 1655.434204,308.904602 
	C1656.428101,304.141022 1657.351318,299.362671 1658.325562,294.497620 
	C1656.685059,294.129089 1656.051880,293.862671 1655.418335,293.862274 
	C1619.781738,293.839996 1584.144897,293.874756 1548.508545,293.777924 
	C1545.321655,293.769257 1544.602661,295.471344 1544.106445,297.959167 
	C1542.318604,306.923767 1540.508911,315.884399 1538.635864,324.831543 
	C1530.284790,364.722595 1521.908691,404.608398 1513.562866,445.283752 
M433.010071,399.684387 
	C434.976837,390.076996 436.929382,380.466705 438.913086,370.862823 
	C443.889709,346.769470 448.798706,322.661530 453.952576,298.606110 
	C454.738373,294.938293 453.965668,293.715607 450.295349,293.770020 
	C442.635101,293.883606 434.967529,293.955048 427.312134,293.730896 
	C424.130219,293.637695 422.855377,294.918762 422.286743,297.816376 
	C421.007507,304.334900 419.512939,310.810760 418.183105,317.319763 
	C412.924194,343.059784 407.297791,368.733276 402.573883,394.571503 
	C398.398193,417.411194 409.530121,436.758057 431.269348,445.058655 
	C445.807220,450.609558 460.934845,450.223724 476.047028,447.221039 
	C492.057800,444.039764 505.126648,435.917633 513.198181,421.820923 
	C518.333984,412.851501 522.373657,402.833588 524.736572,392.776367 
	C531.770386,362.838562 537.744507,332.651550 544.091675,302.553253 
	C544.651123,299.900513 544.910828,297.184570 545.407227,293.840942 
	C535.184143,293.840942 525.905334,293.692627 516.643799,294.024292 
	C515.455017,294.066864 513.656006,296.451782 513.317932,298.007629 
	C506.466278,329.536743 500.130310,361.181732 492.942383,392.632446 
	C488.735016,411.041840 481.422974,421.335999 460.506683,422.592834 
	C444.887970,423.531372 432.297089,416.055603 433.010071,399.684387 
M307.500000,412.914398 
	C315.666473,412.919800 323.840607,413.134705 331.996094,412.838043 
	C335.804657,412.699463 337.390442,414.012451 337.860321,417.677734 
	C338.833252,425.267303 340.248352,432.803070 341.106964,440.403290 
	C341.620392,444.947845 343.062714,447.347504 348.238647,446.864960 
	C353.360382,446.387482 358.561951,446.769958 363.728516,446.769226 
	C371.939758,446.768005 371.944550,446.765350 371.024078,438.900330 
	C370.830872,437.249603 370.629486,435.597961 370.361725,433.958191 
	C367.250275,414.904602 364.106049,395.856354 361.008759,376.800476 
	C356.710724,350.357208 352.410797,323.914124 348.218170,297.454102 
	C347.789398,294.747955 346.628540,293.752991 343.986084,293.792023 
	C338.154388,293.878235 332.105530,294.790558 326.531281,293.583374 
	C314.571655,290.993439 309.696716,297.432983 304.557281,306.738159 
	C280.659851,350.005157 256.093414,392.902649 231.777618,435.938721 
	C230.027466,439.036285 228.367508,442.184814 226.240921,446.089447 
	C228.920486,446.407898 230.503632,446.746429 232.089294,446.758667 
	C239.255356,446.813995 246.426117,446.634979 253.586945,446.834869 
	C257.022400,446.930786 259.116119,445.781677 260.711914,442.672058 
	C264.892578,434.525482 269.486328,426.590973 273.668213,418.445038 
	C275.705292,414.476990 278.206207,412.538086 283.007874,412.818390 
	C290.813843,413.274078 298.666840,412.924133 307.500000,412.914398 
M1452.054077,438.583557 
	C1478.408813,390.701141 1504.763672,342.818726 1531.742432,293.802704 
	C1521.744995,293.802704 1513.137695,293.949585 1504.539917,293.728699 
	C1501.208252,293.643097 1499.415405,294.952240 1497.892334,297.748657 
	C1479.584473,331.364594 1461.201050,364.939362 1442.802734,398.505981 
	C1441.369629,401.120575 1439.678589,403.593689 1438.107300,406.132568 
	C1437.674561,406.006348 1437.241821,405.880157 1436.809082,405.753937 
	C1435.317871,396.750824 1433.836182,387.746124 1432.333496,378.744934 
	C1427.841309,351.835571 1423.290649,324.935730 1418.911621,298.007996 
	C1418.403931,294.886566 1417.167358,293.743347 1414.069702,293.795532 
	C1406.573853,293.921875 1399.065552,294.026306 1391.578979,293.724487 
	C1387.221313,293.548767 1386.437622,295.433868 1387.120361,299.123505 
	C1388.573120,306.973907 1389.896484,314.848145 1391.314087,322.705170 
	C1398.548950,362.804657 1405.828369,402.896149 1412.976685,443.011078 
	C1413.506470,445.984650 1414.812744,446.855194 1417.622803,446.806274 
	C1424.619019,446.684448 1431.660767,446.299988 1438.605225,446.914093 
	C1445.173462,447.494965 1449.528809,445.533173 1452.054077,438.583557 
M593.347839,382.946533 
	C590.189636,398.258606 587.031555,413.570709 583.873047,428.882721 
	C582.898621,433.606384 581.874268,438.320465 580.968323,443.057190 
	C580.510803,445.449585 581.281860,446.819641 584.094604,446.784241 
	C592.088989,446.683594 600.096252,446.975952 608.072632,446.585968 
	C609.729736,446.504944 612.234802,444.424744 612.701599,442.794281 
	C614.435486,436.737213 615.499146,430.486908 616.783630,424.302734 
	C623.647766,391.254120 630.568542,358.216949 637.280151,325.137360 
	C638.157959,320.810913 640.132446,319.510773 644.374084,319.608002 
	C655.529480,319.863647 666.695435,319.795227 677.853882,319.630890 
	C679.568481,319.605621 682.498230,318.714020 682.773560,317.670807 
	C684.783081,310.057434 686.257629,302.302795 688.070862,293.796661 
	C685.244019,293.796661 683.457520,293.796936 681.671082,293.796600 
	C671.176208,293.794556 660.681396,293.789459 650.186523,293.790802 
	C624.199097,293.794098 598.211487,293.854736 572.224609,293.738281 
	C568.878906,293.723297 567.028931,294.398041 566.463379,298.064087 
	C565.653809,303.311584 564.415710,308.501984 563.166809,313.669922 
	C562.045410,318.310333 563.561035,319.890259 568.403992,319.759155 
	C579.390137,319.461731 590.390015,319.645508 601.384094,319.692841 
	C603.903259,319.703674 606.811890,319.549255 605.962097,323.579102 
	C601.845459,343.100006 597.706299,362.616150 593.347839,382.946533 
M1294.500000,293.790222 
	C1265.837769,293.786499 1237.175537,293.823608 1208.513550,293.726044 
	C1205.036743,293.714203 1202.995605,294.387115 1202.431274,298.354309 
	C1201.683594,303.610687 1200.228394,308.765381 1199.103638,313.969482 
	C1198.264404,317.852936 1199.287720,319.854492 1203.835205,319.755768 
	C1214.495117,319.524384 1225.163330,319.674225 1235.828247,319.697205 
	C1242.663574,319.711945 1242.777100,319.900238 1241.411133,326.366089 
	C1234.019897,361.354126 1226.626709,396.341797 1219.286255,431.340515 
	C1218.274902,436.161835 1217.552612,441.043732 1216.557007,446.688354 
	C1226.844482,446.688354 1236.289307,446.838928 1245.715820,446.493347 
	C1246.864990,446.451263 1248.572266,443.881744 1248.916992,442.250305 
	C1257.133423,403.365692 1265.259033,364.461456 1273.209595,325.521698 
	C1274.120117,321.061737 1276.051636,319.496338 1280.562744,319.604431 
	C1291.721313,319.871765 1302.892700,319.811371 1314.053101,319.588135 
	C1315.778564,319.553619 1318.658813,318.277710 1318.986816,317.040741 
	C1320.934814,309.693604 1322.288330,302.188873 1324.039185,293.789886 
	C1314.025146,293.789886 1304.762573,293.789886 1294.500000,293.790222 
M1365.995972,331.580933 
	C1368.565063,319.139771 1371.134277,306.698608 1373.859253,293.502533 
	C1363.427246,293.502533 1354.142090,293.350525 1344.874390,293.683167 
	C1343.630859,293.727814 1341.741821,296.053497 1341.392456,297.602722 
	C1337.915771,313.020660 1334.647583,328.486542 1331.421509,343.959930 
	C1325.005493,374.732056 1318.640869,405.514862 1312.292603,436.301056 
	C1311.634399,439.492676 1311.229492,442.736481 1310.572266,446.786224 
	C1319.975220,446.786224 1328.594727,446.666748 1337.208252,446.842163 
	C1340.904785,446.917450 1342.364014,445.568115 1343.120483,441.858002 
	C1350.564941,405.349701 1358.223022,368.884918 1365.995972,331.580933 
z"/>
<path fill="#FCFCFC" opacity="1.000000" stroke="none" 
	d="
M1788.860840,311.214966 
	C1781.697876,295.241760 1775.548340,279.151001 1767.400391,264.145538 
	C1752.810059,237.276245 1728.524414,222.235458 1700.518311,211.845016 
	C1666.944946,199.389053 1633.594971,200.715408 1600.142700,211.575912 
	C1590.174927,214.811981 1580.467407,218.844681 1570.522339,222.157303 
	C1567.545166,223.148972 1564.057617,223.647247 1560.989258,223.172592 
	C1505.033447,214.516724 1449.243530,204.651886 1393.138550,197.130310 
	C1318.354614,187.104614 1243.330444,178.872253 1168.409912,169.865387 
	C1159.892822,168.841461 1151.378906,167.790436 1142.618896,165.822281 
	C1158.943848,158.213791 1175.268799,150.605301 1191.593750,142.996811 
	C1191.533203,142.597809 1191.472534,142.198792 1191.411987,141.799774 
	C1074.264526,147.296326 957.117188,152.792862 839.969788,158.289398 
	C839.992554,158.615509 840.015320,158.941620 840.038086,159.267731 
	C896.436401,164.201569 952.890259,168.580673 1009.217346,174.225006 
	C1065.733521,179.888229 1122.218628,186.077850 1178.541382,193.391632 
	C1234.823853,200.700165 1290.888184,209.686798 1347.048218,217.937790 
	C1346.992432,218.654922 1346.936646,219.372070 1346.880737,220.089203 
	C1345.238525,220.089203 1343.579468,220.242874 1341.956421,220.066879 
	C1293.925659,214.858444 1245.923218,209.377228 1197.863525,204.452347 
	C1154.275513,199.985672 1110.652466,195.812424 1066.996948,192.067062 
	C1013.878357,187.509811 960.725891,183.317963 907.557373,179.383087 
	C869.672913,176.579361 831.742981,174.375320 793.823547,172.064194 
	C765.388489,170.331131 736.948669,167.865997 708.490845,167.551636 
	C682.218567,167.261398 655.915100,169.305695 629.633789,170.504669 
	C614.155823,171.210770 598.693176,172.256897 583.226013,173.189163 
	C580.318176,173.364441 577.421448,173.724396 574.538269,174.374710 
	C680.040039,182.200470 783.161133,202.037491 884.169800,232.955673 
	C884.129028,233.480026 884.088318,234.004364 884.047546,234.528717 
	C881.596924,234.341049 879.100037,234.393204 876.702576,233.930252 
	C829.244751,224.766312 781.357178,218.688202 733.287415,213.936462 
	C690.810791,209.737595 648.237671,207.343460 605.539917,207.735641 
	C559.111755,208.162125 512.986511,211.341537 467.871948,223.412018 
	C466.401489,223.805435 464.535980,223.757690 463.130310,223.209137 
	C393.612366,196.079376 331.176910,211.482620 273.579559,254.972610 
	C260.093018,265.155945 248.580856,277.467743 238.850601,291.364502 
	C238.097229,292.440460 237.084274,293.334656 235.527695,295.041901 
	C238.912994,283.095245 242.254410,272.398010 244.934036,261.537476 
	C247.583435,250.799515 249.971939,239.900757 245.605743,228.214493 
	C242.024521,231.436234 239.006531,234.233170 235.902328,236.930862 
	C212.415070,257.342407 187.289093,275.310974 158.870087,288.324219 
	C146.183228,294.133606 133.206131,297.823608 118.863274,297.084961 
	C85.586334,295.371185 53.605221,302.146149 22.498636,313.594513 
	C20.970005,314.157135 19.375381,314.540405 16.941900,314.064972 
	C21.906267,308.452423 26.653517,302.624542 31.921316,297.312927 
	C34.804665,294.405579 36.752266,291.540283 36.501785,287.370453 
	C36.091415,280.538788 39.260227,276.329651 45.112591,272.556061 
	C95.075783,240.339798 146.847260,211.735641 202.921844,191.423752 
	C256.611389,171.975815 312.037354,160.282547 368.681488,153.913651 
	C440.080444,145.885788 511.659912,145.776337 583.320679,148.860245 
	C596.499390,149.427383 608.712952,144.862823 620.407288,139.873352 
	C655.914856,124.723854 691.234680,109.112526 726.358765,93.091660 
	C774.079102,71.325432 821.719788,49.407841 871.345459,32.207550 
	C904.445435,20.735077 937.967163,10.247215 972.928894,7.005422 
	C996.551331,4.815053 1020.506042,5.113623 1044.272339,5.759553 
	C1145.279175,8.504755 1244.498291,24.782236 1342.690918,47.512257 
	C1420.229126,65.461151 1497.450684,84.778450 1574.818848,103.462852 
	C1581.920776,105.178001 1589.066772,106.710640 1596.172119,109.150436 
	C1537.302368,113.865715 1478.432617,118.580994 1419.562988,123.296272 
	C1419.553955,123.662727 1419.544922,124.029175 1419.535889,124.395630 
	C1425.476562,124.395630 1431.422485,124.560966 1437.356812,124.370010 
	C1495.631226,122.494843 1553.898193,120.362778 1612.178345,118.688034 
	C1704.733398,116.028358 1796.210938,124.491737 1886.347290,146.151489 
	C1887.462036,146.419373 1888.541138,146.835022 1890.257812,147.378143 
	C1851.410645,174.679062 1810.131714,197.065292 1769.806396,221.688004 
	C1787.078735,252.527817 1791.575562,286.139679 1792.436768,320.655762 
	C1791.282471,317.632660 1790.128052,314.609589 1788.860840,311.214966 
M907.500000,138.968048 
	C918.488464,138.723526 929.476990,138.479691 940.465454,138.234344 
	C998.746155,136.933060 1057.037109,135.971405 1115.303833,134.204865 
	C1151.418945,133.109909 1187.502319,130.890610 1223.585327,128.908524 
	C1228.448242,128.641388 1234.095337,128.084106 1237.900635,125.491203 
	C1262.793335,108.529579 1290.499756,98.494530 1319.301880,90.897385 
	C1320.908813,90.473511 1322.483398,89.926323 1325.085327,89.124634 
	C1322.730469,88.190681 1321.548950,87.645515 1320.319946,87.245483 
	C1212.553833,52.166775 1102.353882,33.123497 988.683655,36.707047 
	C934.975891,38.400230 882.837585,47.347248 832.799927,67.775055 
	C783.157043,88.041679 736.411377,113.782661 690.380981,140.991272 
	C689.909302,141.270065 689.534302,141.712524 688.411499,142.690918 
	C761.773743,141.443542 834.136902,140.213165 907.500000,138.968048 
M166.458786,273.945526 
	C195.236053,260.310974 220.190048,241.837112 239.527374,215.956711 
	C178.298691,228.000305 122.023300,252.005600 69.216484,284.750702 
	C72.303886,284.850586 75.237366,284.492279 78.053986,283.712067 
	C93.286987,279.492615 108.611183,278.152008 123.797768,283.361572 
	C128.532883,284.985901 132.926102,285.192993 137.402161,283.768890 
	C146.901749,280.746429 156.300095,277.405853 166.458786,273.945526 
z"/>
<path fill="#FCFCFC" opacity="1.000000" stroke="none" 
	d="
M78.299255,441.026917 
	C71.153671,442.363129 64.372833,443.293457 57.826767,445.082703 
	C52.239731,446.609833 47.801338,450.134644 44.906677,455.423492 
	C43.173878,458.589539 43.465729,461.421234 46.317772,463.351501 
	C49.726490,465.658478 53.315655,468.052673 57.185017,469.269836 
	C91.438278,480.044800 124.135880,475.429962 155.509140,458.286957 
	C145.093674,459.117371 134.678223,459.947784 124.262764,460.778198 
	C124.051369,460.079773 123.839973,459.381348 123.628578,458.682922 
	C136.565247,454.774994 147.264526,448.211121 152.950226,434.762695 
	C108.490181,412.232635 61.093117,406.891937 12.250534,409.727295 
	C12.134267,409.282013 11.878888,408.854065 11.997326,408.678894 
	C19.652239,397.356415 18.766413,385.426453 14.502904,373.281769 
	C11.251838,364.021027 7.865277,354.807648 4.650477,345.534546 
	C3.968748,343.568146 3.770738,341.434052 3.161578,338.457031 
	C17.236944,345.130737 31.226292,348.568390 45.762608,349.520325 
	C56.896870,350.249481 68.197769,351.805878 79.167770,350.619659 
	C88.173805,349.645782 97.585503,346.530792 105.439926,341.984894 
	C123.709000,331.411285 141.172760,319.441437 158.909393,307.954865 
	C166.733795,302.887573 174.419830,297.606964 182.191833,292.458160 
	C183.232468,291.768738 184.409592,291.285370 186.432495,291.543579 
	C185.259888,293.113037 184.198776,294.782318 182.897079,296.236206 
	C172.210724,308.171631 161.890656,320.370453 154.540619,334.758453 
	C153.783340,336.240814 153.032425,337.729156 152.351639,339.247498 
	C145.984818,353.447113 146.474716,354.156647 156.871124,365.404877 
	C164.071121,373.194855 170.842545,381.522705 176.773529,390.306976 
	C183.797256,400.709717 186.449097,412.691010 184.165894,425.156891 
	C181.972824,437.130829 183.991119,448.306335 188.473785,459.322327 
	C189.978256,463.019501 191.472488,466.752655 192.539169,470.589508 
	C194.701935,478.368835 192.551102,483.732117 185.145203,486.971771 
	C179.399933,489.484955 173.268723,491.656891 167.100082,492.572571 
	C129.859467,498.100586 92.722054,498.173981 55.976044,488.781891 
	C50.186916,487.302216 44.581104,485.093933 38.910713,483.163269 
	C22.740065,477.657532 13.594251,466.027740 9.968965,449.692780 
	C8.242565,441.913910 6.699572,434.094360 5.075360,426.302155 
	C20.536499,420.592926 88.082581,429.962555 107.646881,440.993622 
	C97.255112,440.993622 88.010475,440.993622 78.299255,441.026917 
z"/>
<path fill="#E40707" opacity="1.000000" stroke="none" 
	d="
M918.777344,387.003723 
	C918.916260,390.227814 919.050293,392.976501 919.184387,395.725159 
	C919.652405,395.864014 920.120422,396.002899 920.588440,396.141785 
	C922.668213,392.199951 924.858459,388.311951 926.810059,384.307648 
	C940.951294,355.292786 955.018555,326.241760 969.229858,297.261383 
	C969.928406,295.836853 971.736511,294.004639 973.055298,293.982452 
	C987.157898,293.745148 1001.266113,293.834961 1016.293091,293.834961 
	C1015.551270,298.033997 1015.023987,301.543518 1014.304138,305.013062 
	C1006.462646,342.807922 998.603271,380.599060 990.718384,418.384827 
	C989.020081,426.523315 987.086548,434.614227 985.494629,442.772552 
	C984.896973,445.835815 983.454956,446.888855 980.417358,446.815460 
	C973.922729,446.658508 967.418335,446.662811 960.923828,446.828857 
	C956.800781,446.934265 955.733643,445.536102 956.732605,441.421783 
	C963.208862,414.748779 969.478699,388.025665 975.827576,361.321716 
	C978.096741,351.777496 980.409973,342.243774 982.664795,332.696228 
	C982.884949,331.764069 982.834351,330.767944 981.858459,329.364166 
	C979.515259,334.122101 977.119446,338.854919 974.837402,343.641998 
	C959.509155,375.796539 944.096008,407.911530 929.004211,440.176819 
	C926.588440,445.341675 923.680298,447.443115 917.955017,446.884857 
	C912.178162,446.321503 906.300964,446.665253 900.472107,446.801331 
	C896.965576,446.883118 895.264465,445.586487 895.141479,441.918274 
	C894.460571,421.619080 893.697754,401.322449 892.906372,381.027191 
	C892.257507,364.389679 891.532227,347.755127 890.825928,331.119934 
	C890.800598,330.523010 890.616943,329.932861 890.507019,329.339539 
	C890.074707,329.252686 889.642395,329.165833 889.210083,329.078949 
	C888.496033,331.603882 887.589172,334.091858 887.097351,336.659332 
	C881.244934,367.210510 875.453430,397.773376 869.648499,428.333679 
	C868.779480,432.908569 867.745544,437.461761 867.119080,442.070007 
	C866.640686,445.589478 864.946228,446.910645 861.469116,446.819580 
	C855.307922,446.658112 849.133789,446.599640 842.976318,446.816925 
	C838.429016,446.977417 837.680481,445.170105 838.564453,441.030457 
	C843.566711,417.605133 848.327820,394.128418 853.227539,370.681061 
	C858.263855,346.580566 863.452026,322.511322 868.351196,298.383240 
	C869.160339,294.398163 870.730713,293.542419 874.707092,293.645966 
	C885.687683,293.931885 896.686035,293.450592 907.677612,293.431824 
	C914.769348,293.419739 914.634888,293.551178 914.941895,300.705780 
	C916.169250,329.315369 917.487610,357.921112 918.777344,387.003723 
z"/>
<path fill="#E50707" opacity="1.000000" stroke="none" 
	d="
M688.320557,349.360657 
	C695.692932,328.552338 707.260620,311.224854 726.868591,301.090332 
	C753.476135,287.338043 780.567688,285.720490 806.404846,303.044983 
	C820.750305,312.664032 828.203735,327.351288 829.721252,344.334198 
	C833.033752,381.403076 821.315430,412.553741 790.978699,435.314789 
	C768.447998,452.219116 730.658142,454.066589 708.720703,440.003357 
	C691.866028,429.198456 684.121948,413.125275 682.010864,393.810608 
	C680.348633,378.602325 683.589355,364.064880 688.320557,349.360657 
M729.053406,336.600647 
	C718.559387,351.211823 713.129639,367.478790 712.917725,385.498383 
	C712.580872,414.139252 738.257080,430.889252 764.187317,418.879242 
	C778.008118,412.477875 786.190552,400.990234 791.819336,387.458374 
	C798.266479,371.959198 801.761047,356.089020 796.222473,339.419434 
	C792.182739,327.260803 780.540405,318.490265 767.811768,317.779541 
	C751.647400,316.876984 739.091125,323.283997 729.053406,336.600647 
z"/>
<path fill="#E50707" opacity="1.000000" stroke="none" 
	d="
M1059.441162,308.413269 
	C1078.947266,293.054779 1100.826660,288.527344 1124.668335,292.154449 
	C1151.950684,296.304932 1171.820557,318.779480 1173.829712,347.912933 
	C1175.834106,376.974274 1167.115234,402.670166 1147.659668,424.179138 
	C1133.693237,439.619629 1115.598755,447.687164 1094.718872,449.009674 
	C1080.009644,449.941345 1065.805176,448.401733 1052.888306,440.321686 
	C1036.896851,430.318420 1028.035400,415.544952 1026.285767,397.285004 
	C1022.970032,362.682861 1032.920898,332.519196 1059.441162,308.413269 
M1126.698608,403.155823 
	C1137.218872,388.523895 1142.655884,372.086914 1142.578369,354.177765 
	C1142.530640,343.130157 1139.292969,332.751648 1130.161743,325.369598 
	C1116.435303,314.272675 1094.696777,314.895111 1081.116455,327.637939 
	C1062.136597,345.447266 1054.685669,368.043030 1057.325806,393.636810 
	C1058.862915,408.537842 1070.505615,419.949799 1085.240479,422.211823 
	C1102.739868,424.898193 1115.726074,416.858093 1126.698608,403.155823 
z"/>
<path fill="#E50708" opacity="1.000000" stroke="none" 
	d="
M1513.552246,444.889923 
	C1521.908691,404.608398 1530.284790,364.722595 1538.635864,324.831543 
	C1540.508911,315.884399 1542.318604,306.923767 1544.106445,297.959167 
	C1544.602661,295.471344 1545.321655,293.769257 1548.508545,293.777924 
	C1584.144897,293.874756 1619.781738,293.839996 1655.418335,293.862274 
	C1656.051880,293.862671 1656.685059,294.129089 1658.325562,294.497620 
	C1657.351318,299.362671 1656.428101,304.141022 1655.434204,308.904602 
	C1652.839722,321.338806 1654.919678,319.639832 1641.770874,319.676453 
	C1620.280762,319.736328 1598.789917,319.768646 1577.300781,319.612701 
	C1573.100708,319.582245 1571.096436,320.676086 1570.378906,325.204987 
	C1569.157593,332.912109 1567.070557,340.480896 1565.382080,348.115479 
	C1564.273071,353.130402 1564.915771,353.942169 1570.191650,353.946472 
	C1592.348267,353.964478 1614.504883,353.936859 1636.661499,353.950073 
	C1638.601685,353.951233 1640.541870,354.127533 1643.207520,354.258026 
	C1641.513916,362.489777 1640.155273,370.143219 1638.166260,377.629211 
	C1637.868042,378.751312 1634.621094,379.686859 1632.731934,379.698242 
	C1610.576294,379.831909 1588.419189,379.772095 1566.262573,379.763885 
	C1558.868286,379.761139 1558.848267,379.757172 1557.149170,387.020721 
	C1555.102783,395.770416 1553.012695,404.511200 1551.094971,413.289307 
	C1549.473755,420.709930 1549.649658,420.842529 1557.209351,420.843994 
	C1582.031494,420.848785 1606.853638,420.842438 1631.675781,420.840454 
	C1633.460938,420.840302 1635.246216,420.840454 1638.275024,420.840454 
	C1636.334839,429.508179 1634.768555,437.403809 1632.592651,445.127747 
	C1632.310181,446.130554 1628.885742,446.699799 1626.913696,446.707062 
	C1599.426514,446.808167 1571.938721,446.776123 1544.451172,446.776978 
	C1535.788452,446.777252 1527.124512,446.855469 1518.464111,446.712341 
	C1516.822876,446.685242 1515.196289,445.782471 1513.552246,444.889923 
z"/>
<path fill="#E50707" opacity="1.000000" stroke="none" 
	d="
M432.996460,400.132324 
	C432.297089,416.055603 444.887970,423.531372 460.506683,422.592834 
	C481.422974,421.335999 488.735016,411.041840 492.942383,392.632446 
	C500.130310,361.181732 506.466278,329.536743 513.317932,298.007629 
	C513.656006,296.451782 515.455017,294.066864 516.643799,294.024292 
	C525.905334,293.692627 535.184143,293.840942 545.407227,293.840942 
	C544.910828,297.184570 544.651123,299.900513 544.091675,302.553253 
	C537.744507,332.651550 531.770386,362.838562 524.736572,392.776367 
	C522.373657,402.833588 518.333984,412.851501 513.198181,421.820923 
	C505.126648,435.917633 492.057800,444.039764 476.047028,447.221039 
	C460.934845,450.223724 445.807220,450.609558 431.269348,445.058655 
	C409.530121,436.758057 398.398193,417.411194 402.573883,394.571503 
	C407.297791,368.733276 412.924194,343.059784 418.183105,317.319763 
	C419.512939,310.810760 421.007507,304.334900 422.286743,297.816376 
	C422.855377,294.918762 424.130219,293.637695 427.312134,293.730896 
	C434.967529,293.955048 442.635101,293.883606 450.295349,293.770020 
	C453.965668,293.715607 454.738373,294.938293 453.952576,298.606110 
	C448.798706,322.661530 443.889709,346.769470 438.913086,370.862823 
	C436.929382,380.466705 434.976837,390.076996 432.996460,400.132324 
z"/>
<path fill="#E50707" opacity="1.000000" stroke="none" 
	d="
M307.000000,412.914307 
	C298.666840,412.924133 290.813843,413.274078 283.007874,412.818390 
	C278.206207,412.538086 275.705292,414.476990 273.668213,418.445038 
	C269.486328,426.590973 264.892578,434.525482 260.711914,442.672058 
	C259.116119,445.781677 257.022400,446.930786 253.586945,446.834869 
	C246.426117,446.634979 239.255356,446.813995 232.089294,446.758667 
	C230.503632,446.746429 228.920486,446.407898 226.240921,446.089447 
	C228.367508,442.184814 230.027466,439.036285 231.777618,435.938721 
	C256.093414,392.902649 280.659851,350.005157 304.557281,306.738159 
	C309.696716,297.432983 314.571655,290.993439 326.531281,293.583374 
	C332.105530,294.790558 338.154388,293.878235 343.986084,293.792023 
	C346.628540,293.752991 347.789398,294.747955 348.218170,297.454102 
	C352.410797,323.914124 356.710724,350.357208 361.008759,376.800476 
	C364.106049,395.856354 367.250275,414.904602 370.361725,433.958191 
	C370.629486,435.597961 370.830872,437.249603 371.024078,438.900330 
	C371.944550,446.765350 371.939758,446.768005 363.728516,446.769226 
	C358.561951,446.769958 353.360382,446.387482 348.238647,446.864960 
	C343.062714,447.347504 341.620392,444.947845 341.106964,440.403290 
	C340.248352,432.803070 338.833252,425.267303 337.860321,417.677734 
	C337.390442,414.012451 335.804657,412.699463 331.996094,412.838043 
	C323.840607,413.134705 315.666473,412.919800 307.000000,412.914307 
M298.128235,369.944214 
	C295.553375,373.999420 292.937927,378.029633 290.414886,382.116821 
	C287.838623,386.290253 288.589294,387.761719 293.535065,387.801636 
	C305.181763,387.895599 316.830841,387.746185 328.476501,387.890167 
	C332.364075,387.938232 333.510193,386.192291 333.024506,382.683624 
	C332.296326,377.423035 331.724457,372.137787 330.866394,366.898987 
	C329.668518,359.585602 328.268188,352.305389 326.987366,344.359467 
	C326.922028,343.930969 326.856689,343.502502 326.993835,342.204651 
	C326.295319,337.279083 325.596771,332.353516 324.898224,327.427948 
	C324.415070,327.384888 323.931915,327.341858 323.448761,327.298798 
	C318.824402,334.880341 314.101685,342.404114 309.606567,350.061493 
	C305.945374,356.298248 302.556610,362.694946 298.850342,369.332001 
	C298.850342,369.332001 298.755646,369.687836 298.128235,369.944214 
z"/>
<path fill="#E50707" opacity="1.000000" stroke="none" 
	d="
M1451.894043,438.915833 
	C1449.528809,445.533173 1445.173462,447.494965 1438.605225,446.914093 
	C1431.660767,446.299988 1424.619019,446.684448 1417.622803,446.806274 
	C1414.812744,446.855194 1413.506470,445.984650 1412.976685,443.011078 
	C1405.828369,402.896149 1398.548950,362.804657 1391.314087,322.705170 
	C1389.896484,314.848145 1388.573120,306.973907 1387.120361,299.123505 
	C1386.437622,295.433868 1387.221313,293.548767 1391.578979,293.724487 
	C1399.065552,294.026306 1406.573853,293.921875 1414.069702,293.795532 
	C1417.167358,293.743347 1418.403931,294.886566 1418.911621,298.007996 
	C1423.290649,324.935730 1427.841309,351.835571 1432.333496,378.744934 
	C1433.836182,387.746124 1435.317871,396.750824 1436.809082,405.753937 
	C1437.241821,405.880157 1437.674561,406.006348 1438.107300,406.132568 
	C1439.678589,403.593689 1441.369629,401.120575 1442.802734,398.505981 
	C1461.201050,364.939362 1479.584473,331.364594 1497.892334,297.748657 
	C1499.415405,294.952240 1501.208252,293.643097 1504.539917,293.728699 
	C1513.137695,293.949585 1521.744995,293.802704 1531.742432,293.802704 
	C1504.763672,342.818726 1478.408813,390.701141 1451.894043,438.915833 
z"/>
<path fill="#E60707" opacity="1.000000" stroke="none" 
	d="
M593.461426,382.540253 
	C597.706299,362.616150 601.845459,343.100006 605.962097,323.579102 
	C606.811890,319.549255 603.903259,319.703674 601.384094,319.692841 
	C590.390015,319.645508 579.390137,319.461731 568.403992,319.759155 
	C563.561035,319.890259 562.045410,318.310333 563.166809,313.669922 
	C564.415710,308.501984 565.653809,303.311584 566.463379,298.064087 
	C567.028931,294.398041 568.878906,293.723297 572.224609,293.738281 
	C598.211487,293.854736 624.199097,293.794098 650.186523,293.790802 
	C660.681396,293.789459 671.176208,293.794556 681.671082,293.796600 
	C683.457520,293.796936 685.244019,293.796661 688.070862,293.796661 
	C686.257629,302.302795 684.783081,310.057434 682.773560,317.670807 
	C682.498230,318.714020 679.568481,319.605621 677.853882,319.630890 
	C666.695435,319.795227 655.529480,319.863647 644.374084,319.608002 
	C640.132446,319.510773 638.157959,320.810913 637.280151,325.137360 
	C630.568542,358.216949 623.647766,391.254120 616.783630,424.302734 
	C615.499146,430.486908 614.435486,436.737213 612.701599,442.794281 
	C612.234802,444.424744 609.729736,446.504944 608.072632,446.585968 
	C600.096252,446.975952 592.088989,446.683594 584.094604,446.784241 
	C581.281860,446.819641 580.510803,445.449585 580.968323,443.057190 
	C581.874268,438.320465 582.898621,433.606384 583.873047,428.882721 
	C587.031555,413.570709 590.189636,398.258606 593.461426,382.540253 
z"/>
<path fill="#E60707" opacity="1.000000" stroke="none" 
	d="
M1295.000000,293.790039 
	C1304.762573,293.789886 1314.025146,293.789886 1324.039185,293.789886 
	C1322.288330,302.188873 1320.934814,309.693604 1318.986816,317.040741 
	C1318.658813,318.277710 1315.778564,319.553619 1314.053101,319.588135 
	C1302.892700,319.811371 1291.721313,319.871765 1280.562744,319.604431 
	C1276.051636,319.496338 1274.120117,321.061737 1273.209595,325.521698 
	C1265.259033,364.461456 1257.133423,403.365692 1248.916992,442.250305 
	C1248.572266,443.881744 1246.864990,446.451263 1245.715820,446.493347 
	C1236.289307,446.838928 1226.844482,446.688354 1216.557007,446.688354 
	C1217.552612,441.043732 1218.274902,436.161835 1219.286255,431.340515 
	C1226.626709,396.341797 1234.019897,361.354126 1241.411133,326.366089 
	C1242.777100,319.900238 1242.663574,319.711945 1235.828247,319.697205 
	C1225.163330,319.674225 1214.495117,319.524384 1203.835205,319.755768 
	C1199.287720,319.854492 1198.264404,317.852936 1199.103638,313.969482 
	C1200.228394,308.765381 1201.683594,303.610687 1202.431274,298.354309 
	C1202.995605,294.387115 1205.036743,293.714203 1208.513550,293.726044 
	C1237.175537,293.823608 1265.837769,293.786499 1295.000000,293.790039 
z"/>
<path fill="#E40707" opacity="1.000000" stroke="none" 
	d="
M1365.908203,331.994354 
	C1358.223022,368.884918 1350.564941,405.349701 1343.120483,441.858002 
	C1342.364014,445.568115 1340.904785,446.917450 1337.208252,446.842163 
	C1328.594727,446.666748 1319.975220,446.786224 1310.572266,446.786224 
	C1311.229492,442.736481 1311.634399,439.492676 1312.292603,436.301056 
	C1318.640869,405.514862 1325.005493,374.732056 1331.421509,343.959930 
	C1334.647583,328.486542 1337.915771,313.020660 1341.392456,297.602722 
	C1341.741821,296.053497 1343.630859,293.727814 1344.874390,293.683167 
	C1354.142090,293.350525 1363.427246,293.502533 1373.859253,293.502533 
	C1371.134277,306.698608 1368.565063,319.139771 1365.908203,331.994354 
z"/>
<path fill="#020202" opacity="1.000000" stroke="none" 
	d="
M907.000000,138.975403 
	C834.136902,140.213165 761.773743,141.443542 688.411499,142.690918 
	C689.534302,141.712524 689.909302,141.270065 690.380981,140.991272 
	C736.411377,113.782661 783.157043,88.041679 832.799927,67.775055 
	C882.837585,47.347248 934.975891,38.400230 988.683655,36.707047 
	C1102.353882,33.123497 1212.553833,52.166775 1320.319946,87.245483 
	C1321.548950,87.645515 1322.730469,88.190681 1325.085327,89.124634 
	C1322.483398,89.926323 1320.908813,90.473511 1319.301880,90.897385 
	C1290.499756,98.494530 1262.793335,108.529579 1237.900635,125.491203 
	C1234.095337,128.084106 1228.448242,128.641388 1223.585327,128.908524 
	C1187.502319,130.890610 1151.418945,133.109909 1115.303833,134.204865 
	C1057.037109,135.971405 998.746155,136.933060 940.465454,138.234344 
	C929.476990,138.479691 918.488464,138.723526 907.000000,138.975403 
z"/>
<path fill="#050505" opacity="1.000000" stroke="none" 
	d="
M166.099365,274.070618 
	C156.300095,277.405853 146.901749,280.746429 137.402161,283.768890 
	C132.926102,285.192993 128.532883,284.985901 123.797768,283.361572 
	C108.611183,278.152008 93.286987,279.492615 78.053986,283.712067 
	C75.237366,284.492279 72.303886,284.850586 69.216484,284.750702 
	C122.023300,252.005600 178.298691,228.000305 239.527374,215.956711 
	C220.190048,241.837112 195.236053,260.310974 166.099365,274.070618 
z"/>
<path fill="#060001" opacity="1.000000" stroke="none" 
	d="
M729.275757,336.319641 
	C739.091125,323.283997 751.647400,316.876984 767.811768,317.779541 
	C780.540405,318.490265 792.182739,327.260803 796.222473,339.419434 
	C801.761047,356.089020 798.266479,371.959198 791.819336,387.458374 
	C786.190552,400.990234 778.008118,412.477875 764.187317,418.879242 
	C738.257080,430.889252 712.580872,414.139252 712.917725,385.498383 
	C713.129639,367.478790 718.559387,351.211823 729.275757,336.319641 
z"/>
<path fill="#060001" opacity="1.000000" stroke="none" 
	d="
M1126.479736,403.439880 
	C1115.726074,416.858093 1102.739868,424.898193 1085.240479,422.211823 
	C1070.505615,419.949799 1058.862915,408.537842 1057.325806,393.636810 
	C1054.685669,368.043030 1062.136597,345.447266 1081.116455,327.637939 
	C1094.696777,314.895111 1116.435303,314.272675 1130.161743,325.369598 
	C1139.292969,332.751648 1142.530640,343.130157 1142.578369,354.177765 
	C1142.655884,372.086914 1137.218872,388.523895 1126.479736,403.439880 
z"/>
<path fill="#040101" opacity="1.000000" stroke="none" 
	d="
M326.791321,343.074005 
	C326.856689,343.502502 326.922028,343.930969 326.693970,344.963623 
	C326.343353,347.378876 326.017151,349.228973 326.273315,350.994659 
	C327.745392,361.142914 329.400024,371.264587 330.891205,381.410248 
	C331.331726,384.407349 330.703674,385.768250 326.804504,385.363464 
	C320.209961,384.678894 313.499481,385.101288 306.837708,385.077240 
	C302.080231,385.060059 297.322601,385.073914 291.510803,385.073914 
	C293.096497,382.120697 294.260956,380.188141 295.197235,378.150757 
	C296.474457,375.371643 297.577759,372.512604 298.755646,369.687836 
	C298.755646,369.687836 298.850342,369.332001 299.291443,369.130676 
	C301.554840,366.433014 303.541138,364.038757 305.169952,361.422028 
	C311.014099,352.033417 316.737305,342.569519 322.528229,333.098083 
	C324.137787,336.864563 325.464569,339.969299 326.791321,343.074005 
z"/>
<path fill="#460202" opacity="1.000000" stroke="none" 
	d="
M298.441956,369.816040 
	C297.577759,372.512604 296.474457,375.371643 295.197235,378.150757 
	C294.260956,380.188141 293.096497,382.120697 291.510803,385.073914 
	C297.322601,385.073914 302.080231,385.060059 306.837708,385.077240 
	C313.499481,385.101288 320.209961,384.678894 326.804504,385.363464 
	C330.703674,385.768250 331.331726,384.407349 330.891205,381.410248 
	C329.400024,371.264587 327.745392,361.142914 326.273315,350.994659 
	C326.017151,349.228973 326.343353,347.378876 326.677551,345.289368 
	C328.268188,352.305389 329.668518,359.585602 330.866394,366.898987 
	C331.724457,372.137787 332.296326,377.423035 333.024506,382.683624 
	C333.510193,386.192291 332.364075,387.938232 328.476501,387.890167 
	C316.830841,387.746185 305.181763,387.895599 293.535065,387.801636 
	C288.589294,387.761719 287.838623,386.290253 290.414886,382.116821 
	C292.937927,378.029633 295.553375,373.999420 298.441956,369.816040 
z"/>
<path fill="#460202" opacity="1.000000" stroke="none" 
	d="
M326.892578,342.639343 
	C325.464569,339.969299 324.137787,336.864563 322.528229,333.098083 
	C316.737305,342.569519 311.014099,352.033417 305.169952,361.422028 
	C303.541138,364.038757 301.554840,366.433014 299.389771,368.975037 
	C302.556610,362.694946 305.945374,356.298248 309.606567,350.061493 
	C314.101685,342.404114 318.824402,334.880341 323.448761,327.298798 
	C323.931915,327.341858 324.415070,327.384888 324.898224,327.427948 
	C325.596771,332.353516 326.295319,337.279083 326.892578,342.639343 
z"/>
</svg>